<?xml version="1.0" standalone="no"?>
<!DOCTYPE svg PUBLIC "-//W3C//DTD SVG 20010904//EN"
 "http://www.w3.org/TR/2001/REC-SVG-20010904/DTD/svg10.dtd">
<svg version="1.0" xmlns="http://www.w3.org/2000/svg"
 width="900.000000pt" height="520.000000pt" viewBox="0 0 900.000000 520.000000"
 preserveAspectRatio="xMidYMid meet">

<g transform="translate(0.000000,520.000000) scale(0.100000,-0.100000)"
fill="#000000" stroke="none">
<path d="M2904 5190 c-43 -17 -54 -48 -54 -147 l0 -93 -184 0 c-102 0 -196 -4
-210 -10 -14 -5 -33 -21 -43 -37 -16 -25 -18 -55 -18 -344 1 -340 3 -356 52
-378 15 -7 96 -11 213 -11 l190 0 0 -1950 0 -1950 -225 0 c-256 0 -275 -4
-295 -65 -15 -46 1 -90 41 -110 42 -22 4216 -22 4258 0 65 33 62 133 -5 161
-28 12 -266 14 -1514 14 l-1480 0 0 1361 0 1362 588 588 589 589 486 0 487 0
0 -278 0 -278 -57 -18 c-110 -35 -145 -107 -80 -169 l32 -32 -32 -31 c-24 -23
-33 -41 -33 -64 0 -23 9 -41 33 -64 l32 -31 -32 -32 c-23 -21 -33 -41 -33 -61
0 -34 31 -78 61 -87 18 -6 5 -24 -109 -139 -146 -148 -171 -183 -208 -293 -66
-198 -10 -418 144 -565 104 -99 228 -148 378 -148 307 0 544 239 544 550 0 89
-18 161 -61 250 -26 53 -65 98 -206 241 -95 96 -173 179 -173 182 0 4 4 7 10
7 5 0 34 9 64 20 43 17 57 28 71 56 21 44 6 97 -32 118 l-26 13 26 17 c29 20
51 73 41 102 -10 28 -45 64 -63 64 -9 0 -3 9 16 21 37 24 58 75 44 110 -20 54
-68 74 -133 56 l-28 -7 0 245 0 245 189 0 c185 0 189 0 214 24 14 13 28 39 32
57 3 19 5 170 3 336 l-3 303 -28 27 -27 28 -1360 3 -1360 2 0 79 c0 43 -5 92
-11 110 -21 59 -34 61 -381 60 -172 0 -323 -4 -334 -9z m536 -2550 l0 -2370
-200 0 -200 0 0 2370 0 2370 200 0 200 0 0 -2370z m-590 1920 l0 -200 -135 0
-135 0 0 200 0 200 135 0 135 0 0 -200z m3370 0 l0 -200 -1295 0 -1295 0 0
200 0 200 1295 0 1295 0 0 -200z m-2220 -393 c0 -1 -83 -85 -185 -187 l-185
-185 0 188 0 187 185 0 c102 0 185 -1 185 -3z m90 -452 l-455 -455 -3 132 -3
132 323 323 323 323 135 0 135 0 -455 -455z m1936 -937 c171 -176 195 -213
202 -325 8 -123 -29 -216 -119 -297 -175 -157 -465 -96 -559 117 -30 68 -41
137 -30 202 17 106 47 152 200 309 79 80 146 146 150 146 3 0 74 -69 156 -152z"/>
</g>
</svg>
